# xmcd
#
# Track frame offsets: 
#        150
#        21127
#        39695
#        59576
#        72292
#        90524
#        104494
#        126884
#        146535
#        167683
#        186931
#
# Disc length: 2716 seconds
#
# Revision: 0
# Processed by: cddbd v1.5.2PL0 Copyright (c) Steve Scherf et al.
# Submitted via: ExactAudioCopy v0.99pb4
#
DISCID=9c0a9a0b
DTITLE=The Doneones - Mixed Tape
DYEAR=2008
DGENRE=
TTITLE0=Halflivin'
TTITLE1=Waiting For Spring
TTITLE2=Atmosphere
TTITLE3=Best Friends
TTITLE4=Daylight
TTITLE5=Farcied Love
TTITLE6=Honey Bee
TTITLE7=Imagination
TTITLE8=Vertigo
TTITLE9=Wonderful
TTITLE10=Error (Bonus Track)
EXTD=
EXTT0=
EXTT1=
EXTT2=
EXTT3=
EXTT4=
EXTT5=
EXTT6=
EXTT7=
EXTT8=
EXTT9=
EXTT10=
PLAYORDER=
